<svg width="321" height="304" viewBox="0 0 321 304" fill="none" xmlns="http://www.w3.org/2000/svg">
<path fill-rule="evenodd" clip-rule="evenodd" d="M141.521 0.736178C132.131 2.22018 118.049 6.26319 109.121 10.0382C100.563 13.6572 85.7932 21.8912 84.0742 24.0012C82.8712 25.4792 81.9972 41.7042 81.9342 63.7492L81.8862 80.2922L76.1362 82.2462C63.9812 86.3772 50.3792 97.7622 45.1212 108.206C38.1982 121.955 38.2942 135.784 45.4092 149.706C50.9062 160.462 61.9112 169.223 74.6362 172.971L81.8862 175.107V194.452C81.8862 213.658 81.9042 213.815 84.3412 216.251C85.6912 217.601 87.5202 218.706 88.4062 218.706C88.7568 219.574 95.3987 217.556 94.8862 215.988C95.1612 215.742 95.6112 192.29 95.8862 163.873L96.3862 112.206L99.6362 111.893L102.886 111.579V162.688V213.797L105.341 216.251C108.564 219.475 112.191 219.406 114.813 216.071C116.77 213.583 116.887 212.174 116.9 190.821L116.915 168.206L121.705 165.565C133.89 158.849 146.938 146.158 155.887 132.32C158.24 128.682 160.379 125.706 160.641 125.706C163.587 125.706 180.921 142.537 186.848 151.151C196.349 164.96 204.284 187.87 205.556 205.166C206.107 212.651 206.592 214.503 208.505 216.416C211.374 219.285 213.843 219.314 217.392 216.523C217.392 216.523 218.697 215.111 219.532 214.206C219.816 210.044 219.837 207.848 219.532 204.273C217.444 171.173 200.78 138.88 175.791 119.51C168.021 113.487 167.28 112.449 168.493 109.288C169.406 106.909 170.679 107.311 176.795 111.908C191.347 122.846 203.565 137.527 212.176 154.419C220.357 170.469 224.943 186.797 226.441 205.206C227.109 213.424 228.811 217.706 231.409 217.706C232.43 217.706 232.886 216.626 232.886 214.206C232.886 210.769 233.886 210.706 237.033 210.706C240.18 210.706 241.179 210.706 241.179 210.706L240.541 203.154C239.703 193.241 236.382 177.079 233.257 167.706C229.612 156.773 219.715 137.272 213.718 129.206C206.679 119.739 191.658 104.88 184.355 100.159C174.14 93.5552 174.661 94.7462 177.851 85.3092C179.385 80.7732 182.132 71.1302 183.956 63.8812L187.272 50.7012L185.23 47.9532C182.502 44.2832 178.033 43.8142 175.28 46.9092C174.047 48.2952 172.121 53.7662 170.423 60.7062C161.941 95.3852 146.622 126.289 130.252 141.744C124.539 147.139 118.684 151.706 117.482 151.706C117.154 151.706 116.886 149.958 116.886 147.821C116.886 144.804 117.432 143.578 119.331 142.334C124.139 139.184 133.252 129.067 138.58 120.965C149.384 104.538 159.59 79.0312 164.984 54.9792L167.278 44.7522L164.908 42.2292C160.06 37.0692 153.696 39.9212 152.368 47.8502C151.426 53.4742 143.999 78.9712 143.012 79.9712C142.596 80.3912 136.954 79.8292 130.472 78.7212C123.99 77.6132 118.272 76.7062 117.764 76.7062C117.223 76.7062 116.953 69.3672 117.113 59.0192L117.386 41.3312L123.096 38.5162C139.44 30.4592 164.476 29.5202 181.386 36.3302C205.125 45.8902 210.156 62.3032 196.006 84.0222C191.117 91.5262 190.886 94.8932 195.049 97.9872C199.335 101.173 202.279 99.7152 207.281 91.9272C214.629 80.4892 217.278 72.6582 217.336 62.2062C217.38 54.3192 217.04 52.5022 214.592 47.5162C209.497 37.1412 197.432 28.1072 182.386 23.4012C157.271 15.5452 129.802 18.5002 108.68 31.3312L102.886 34.8512V55.6622V76.4732L100.142 76.9972C98.6323 77.2862 97.0573 77.3122 96.6423 77.0552C96.2263 76.7982 95.8862 66.2992 95.8862 53.7242V30.8602L102.751 26.2962C110.82 20.9312 121.087 16.3932 131.74 13.4812C137.875 11.8042 142.351 11.3852 154.386 11.3582C167.702 11.3292 170.569 11.073 179.386 13.5C202.816 19.95 217.679 32.7282 222.991 49.7972C227.417 64.0162 223.729 79.4722 211.454 98.1592C208.941 101.983 206.886 106.067 206.886 107.235C206.886 109.992 210.873 113.706 213.832 113.706C219.833 113.706 233.118 91.5472 236.942 75.1612C238.527 68.3692 238.52 55.3462 236.929 48.7062C231.858 27.5512 211.581 10.3982 182.936 3.03418C172.169 0.266183 151.691 -0.869822 141.521 0.736178ZM99.2902 90.7262C78.9362 92.8732 62.7612 102.317 56.5072 115.706C53.4222 122.311 53.5502 135.406 56.7642 141.942C60.9142 150.382 69.4202 157.163 79.6362 160.177C81.6582 160.774 81.8862 160.497 81.8862 157.444C81.8862 154.344 81.4472 153.842 76.8422 151.686C71.1062 148.999 65.6532 144.089 63.2562 139.455C60.4582 134.043 60.2942 124.953 62.8862 118.928C66.7132 110.032 77.6652 102.385 91.1262 99.2122C98.8962 97.3792 118.925 97.3032 128.054 99.0712C134.666 100.351 134.731 100.342 135.804 97.9872C137.45 94.3742 137.189 93.8642 133.136 92.7812C129.853 91.9042 108.221 89.4822 106.886 89.8432C106.611 89.9172 103.193 90.3142 99.2902 90.7262ZM117.413 111.512C116.457 112.469 116.865 124.706 117.854 124.706C119.17 124.706 127.319 113.806 126.566 113.052C125.693 112.179 118.035 110.89 117.413 111.512ZM79.6362 118.824C77.1032 120.245 74.8862 125.06 74.8862 129.141C74.8862 131.632 75.7472 133.638 77.8032 135.94C79.4082 137.735 80.9992 138.926 81.3402 138.586C81.6802 138.245 81.8302 133.438 81.6722 127.904C81.4092 118.656 81.2442 117.921 79.6362 118.824Z" fill="url(#paint0_linear_102_21)"/>
<path d="M23.374 249.08C28.0033 249.08 31.6407 250.196 34.286 252.428C36.9313 254.66 38.254 257.657 38.254 261.418C38.254 265.427 36.9313 268.507 34.286 270.656C31.6407 272.764 28.024 273.818 23.436 273.818L22.568 274.314H13.764V290H5.332V249.08H23.374ZM22.382 267.804C24.7793 267.804 26.5567 267.329 27.714 266.378C28.9127 265.386 29.512 263.877 29.512 261.852C29.512 259.827 28.9127 258.339 27.714 257.388C26.5567 256.396 24.7793 255.9 22.382 255.9H13.764V267.804H22.382ZM27.404 269.602L40.672 290H31.062L20.088 272.082L27.404 269.602ZM65.3832 290.62C62.1178 290.62 59.2658 289.979 56.8272 288.698C54.4298 287.417 52.5698 285.577 51.2472 283.18C49.9245 280.783 49.2632 277.889 49.2632 274.5C49.2632 271.111 49.9245 268.217 51.2472 265.82C52.5698 263.423 54.4092 261.583 56.7652 260.302C59.1625 259.021 61.8905 258.38 64.9492 258.38C68.0905 258.38 70.7565 259.021 72.9472 260.302C75.1378 261.542 76.8118 263.257 77.9692 265.448C79.1265 267.597 79.7052 270.057 79.7052 272.826C79.7052 273.653 79.6845 274.438 79.6432 275.182C79.6018 275.926 79.5398 276.587 79.4572 277.166H54.7192V271.276H75.7372L71.6452 272.764C71.6452 270.16 71.0458 268.155 69.8472 266.75C68.6898 265.345 67.0365 264.642 64.8872 264.642C63.3165 264.642 61.9525 265.014 60.7952 265.758C59.6792 266.502 58.8318 267.618 58.2532 269.106C57.6745 270.553 57.3852 272.392 57.3852 274.624C57.3852 276.815 57.6952 278.633 58.3152 280.08C58.9765 281.485 59.8858 282.539 61.0432 283.242C62.2418 283.945 63.6678 284.296 65.3212 284.296C67.1398 284.296 68.6072 283.945 69.7232 283.242C70.8392 282.539 71.7072 281.568 72.3272 280.328L79.0852 282.932C78.4238 284.544 77.4112 285.929 76.0472 287.086C74.7245 288.243 73.1332 289.132 71.2732 289.752C69.4545 290.331 67.4912 290.62 65.3832 290.62ZM102.333 249.514V279.894C102.333 281.382 102.705 282.477 103.449 283.18C104.234 283.841 105.288 284.172 106.611 284.172C107.644 284.172 108.553 284.027 109.339 283.738C110.124 283.407 110.827 282.973 111.447 282.436L112.811 288.078C111.819 288.863 110.579 289.483 109.091 289.938C107.603 290.393 106.032 290.62 104.379 290.62C102.312 290.62 100.473 290.31 98.8605 289.69C97.2899 289.07 96.0499 288.078 95.1405 286.714C94.2725 285.35 93.8385 283.531 93.8385 281.258V251.87L102.333 249.514ZM112.253 259V265.324H88.1345V259H112.253ZM137.383 290.62C134.118 290.62 131.266 289.979 128.827 288.698C126.43 287.417 124.57 285.577 123.247 283.18C121.924 280.783 121.263 277.889 121.263 274.5C121.263 271.111 121.924 268.217 123.247 265.82C124.57 263.423 126.409 261.583 128.765 260.302C131.162 259.021 133.89 258.38 136.949 258.38C140.09 258.38 142.756 259.021 144.947 260.302C147.138 261.542 148.812 263.257 149.969 265.448C151.126 267.597 151.705 270.057 151.705 272.826C151.705 273.653 151.684 274.438 151.643 275.182C151.602 275.926 151.54 276.587 151.457 277.166H126.719V271.276H147.737L143.645 272.764C143.645 270.16 143.046 268.155 141.847 266.75C140.69 265.345 139.036 264.642 136.887 264.642C135.316 264.642 133.952 265.014 132.795 265.758C131.679 266.502 130.832 267.618 130.253 269.106C129.674 270.553 129.385 272.392 129.385 274.624C129.385 276.815 129.695 278.633 130.315 280.08C130.976 281.485 131.886 282.539 133.043 283.242C134.242 283.945 135.668 284.296 137.321 284.296C139.14 284.296 140.607 283.945 141.723 283.242C142.839 282.539 143.707 281.568 144.327 280.328L151.085 282.932C150.424 284.544 149.411 285.929 148.047 287.086C146.724 288.243 145.133 289.132 143.273 289.752C141.454 290.331 139.491 290.62 137.383 290.62ZM163.903 290V259H171.529L172.025 268.3L170.971 267.308C171.467 265.283 172.253 263.609 173.327 262.286C174.402 260.963 175.704 259.992 177.233 259.372C178.804 258.711 180.519 258.38 182.379 258.38C184.529 258.38 186.43 258.793 188.083 259.62C189.778 260.447 191.101 261.707 192.051 263.402C193.043 265.055 193.539 267.143 193.539 269.664V290H185.045V272.082C185.045 269.437 184.529 267.618 183.495 266.626C182.462 265.593 181.119 265.076 179.465 265.076C178.308 265.076 177.171 265.365 176.055 265.944C174.981 266.481 174.092 267.37 173.389 268.61C172.728 269.85 172.397 271.503 172.397 273.57V290H163.903ZM218.022 249.514V279.894C218.022 281.382 218.394 282.477 219.138 283.18C219.923 283.841 220.977 284.172 222.3 284.172C223.333 284.172 224.243 284.027 225.028 283.738C225.813 283.407 226.516 282.973 227.136 282.436L228.5 288.078C227.508 288.863 226.268 289.483 224.78 289.938C223.292 290.393 221.721 290.62 220.068 290.62C218.001 290.62 216.162 290.31 214.55 289.69C212.979 289.07 211.739 288.078 210.83 286.714C209.962 285.35 209.528 283.531 209.528 281.258V251.87L218.022 249.514ZM227.942 259V265.324H203.824V259H227.942ZM242.967 254.536C241.189 254.536 239.867 254.164 238.999 253.42C238.131 252.635 237.697 251.498 237.697 250.01C237.697 248.481 238.131 247.344 238.999 246.6C239.867 245.815 241.189 245.422 242.967 245.422C244.744 245.422 246.067 245.815 246.935 246.6C247.803 247.344 248.237 248.481 248.237 250.01C248.237 251.498 247.803 252.635 246.935 253.42C246.067 254.164 244.744 254.536 242.967 254.536ZM247.183 259V290H238.689V259H247.183ZM275.013 244.802C276.459 244.802 277.761 244.967 278.919 245.298C280.117 245.587 281.006 245.959 281.585 246.414L280.407 252.056C279.952 251.767 279.435 251.539 278.857 251.374C278.278 251.209 277.596 251.126 276.811 251.126C275.199 251.126 273.917 251.498 272.967 252.242C272.016 252.945 271.541 254.164 271.541 255.9V260.178L271.913 261.852V290H263.419V255.28C263.419 253.544 263.708 252.015 264.287 250.692C264.865 249.369 265.671 248.274 266.705 247.406C267.738 246.538 268.957 245.897 270.363 245.484C271.809 245.029 273.359 244.802 275.013 244.802ZM281.337 259V265.324H258.025V259H281.337ZM320.575 259L308.051 291.922C307.059 294.733 305.943 296.965 304.703 298.618C303.504 300.271 302.099 301.47 300.487 302.214C298.916 302.958 297.035 303.33 294.845 303.33C293.233 303.33 291.745 303.123 290.381 302.71C289.058 302.338 287.901 301.842 286.909 301.222L288.707 295.084C289.492 295.704 290.319 296.138 291.187 296.386C292.055 296.675 293.047 296.82 294.163 296.82C295.32 296.82 296.312 296.572 297.139 296.076C298.007 295.58 298.73 294.588 299.309 293.1L300.363 290.434L296.953 282.374L287.467 259H296.891L302.781 277.6L304.393 283.8L306.315 277.228L311.957 259H320.575Z" fill="white"/>
<ellipse cx="234.5" cy="211.5" rx="6.5" ry="7.5" fill="white"/>
<defs>
<linearGradient id="paint0_linear_102_21" x1="241" y1="227.5" x2="97.5" y2="9.79934e-06" gradientUnits="userSpaceOnUse">
<stop stop-color="white"/>
<stop offset="0.599958" stop-color="white" stop-opacity="0.944765"/>
<stop offset="1" stop-color="white" stop-opacity="0.76"/>
</linearGradient>
</defs>
</svg>
